<?xml version="1.0" encoding="UTF-8" standalone="no"?>
<!DOCTYPE svg PUBLIC "-//W3C//DTD SVG 1.1//EN"
"http://www.w3.org/Graphics/SVG/1.1/DTD/svg11.dtd">
<svg viewBox="0 0 909 1286" version="1.1" xmlns="http://www.w3.org/2000/svg" xmlns:xlink="http://www.w3.org/1999/xlink">
<defs>
<clipPath id="c0_1"><path d="M0,1286.3V0H909.5V1286.3Z"/></clipPath>
<style type="text/css"><![CDATA[
.g0_1{
fill: #4472C4;
}
.g1_1{
fill: #000;
}
.g2_1{
fill: #FFF;
}
.g3_1{
fill: none;
stroke: #000;
stroke-width: 0.763;
stroke-linejoin: round;
}
.g4_1{
fill: none;
stroke: #000;
stroke-width: 0.763;
stroke-miterlimit: 8;
stroke-dasharray: 7,3,1,3;
}
]]></style>
</defs>
<path fill-rule="evenodd" d="M173.8,138.4H735.9v-.7H173.8v.7Z" class="g0_1"/>
<path fill-rule="evenodd" d="M173.8,190.1H735.9v-.7H173.8v.7Z" class="g0_1"/>
<path fill-rule="evenodd" d="M420.3,292.1h26.2V291H420.3v1.1Z" class="g1_1"/>
<path fill-rule="evenodd" d="M317.2,837.6H431.3v-1.1H317.2v1.1Z" class="g1_1"/>
<path fill-rule="evenodd" d="M244,858.1h69.9V857H244v1.1Z" class="g1_1"/>
<path fill-rule="evenodd" d="M355.6,858.1h58.8V857H355.6v1.1Z" class="g1_1"/>
<g clip-path="url(#c0_1)">
<image preserveAspectRatio="none" x="138" y="926" width="15" height="16" xlink:href="img/1.png"/>
<image preserveAspectRatio="none" x="138" y="947" width="15" height="15" xlink:href="img/2.png"/>
<image preserveAspectRatio="none" x="138" y="967" width="15" height="16" xlink:href="img/3.png"/>
<image preserveAspectRatio="none" x="138" y="1008" width="15" height="16" xlink:href="img/4.png"/>
<image preserveAspectRatio="none" x="138" y="1090" width="15" height="16" xlink:href="img/5.png"/>
</g>
<path fill-rule="evenodd" d="M242.9,505.1H375.8V469.2H242.9v35.9Z" class="g2_1"/>
<path d="M242.9,505.1H375.8V469.2H242.9v35.9Z" class="g3_1"/>
<path fill-rule="evenodd" d="M574.4,503.5h133V467.6h-133v35.9Z" class="g2_1"/>
<path d="M574.4,503.5h133V467.6h-133v35.9Z" class="g3_1"/>
<path fill-rule="evenodd" d="M268.1,608.9H401v-36H268.1v36Z" class="g2_1"/>
<path d="M268.1,608.9H401v-36H268.1v36Z" class="g3_1"/>
<path fill-rule="evenodd" d="M566,608.1H699v-36H566v36Z" class="g2_1"/>
<path d="M566,608.1H699v-36H566v36Z" class="g3_1"/>
<path fill-rule="evenodd" d="M67.2,608.9H252.1v-36H67.2v36Z" class="g2_1"/>
<path d="M67.2,608.9H252.1v-36H67.2v36Z" class="g3_1"/>
<path fill-rule="evenodd" d="M714.2,608.1h133v-36h-133v36Z" class="g2_1"/>
<path d="M714.2,608.1h133v-36h-133v36Z" class="g3_1"/>
<path fill-rule="evenodd" d="M419.4,608.1H552.3v-36H419.4v36Z" class="g2_1"/>
<path d="M419.4,608.1H552.3v-36H419.4v36Z" class="g3_1"/>
<path d="M242.9,502.7L68.8,572.1m307,-65.3L479,572.1m.7,.8l91.7,-68.6m139,2.5l133.7,64.5" class="g4_1"/>
<path fill-rule="evenodd" d="M17.6,674.2H51.9v-174H17.6v174Z" class="g2_1"/>
<path fill-rule="evenodd" d="M863.2,703.6h26.7v-227H863.2v227Z" class="g2_1"/>
</svg>