<?xml version="1.0" encoding="UTF-8" standalone="no"?>
<!DOCTYPE svg PUBLIC "-//W3C//DTD SVG 1.1//EN"
"http://www.w3.org/Graphics/SVG/1.1/DTD/svg11.dtd">
<svg viewBox="0 0 909 1286" version="1.1" xmlns="http://www.w3.org/2000/svg" xmlns:xlink="http://www.w3.org/1999/xlink">
<defs>
<clipPath id="c0_1"><path d="M0,1286.3V0H909.5V1286.3Z"/></clipPath>
<style type="text/css"><![CDATA[
.g0_1{
fill: #4472C4;
}
.g1_1{
fill: #000;
}
.g2_1{
fill: #FFF;
}
.g3_1{
fill: none;
stroke: #000;
stroke-width: 0.763;
stroke-linejoin: round;
}
.g4_1{
fill: none;
stroke: #000;
stroke-width: 0.763;
stroke-miterlimit: 8;
stroke-dasharray: 7,3,1,3;
}
]]></style>
</defs>
<path fill-rule="evenodd" d="M173.8,138.4H735.9v-.7H173.8v.7Z" class="g0_1"/>
<path fill-rule="evenodd" d="M173.8,190.1H735.9v-.7H173.8v.7Z" class="g0_1"/>
<path fill-rule="evenodd" d="M420.3,292.1h26.2V291H420.3v1.1Z" class="g1_1"/>
<path fill-rule="evenodd" d="M317.2,837.6H431.3v-1.1H317.2v1.1Z" class="g1_1"/>
<path fill-rule="evenodd" d="M244,858.1h69.9V857H244v1.1Z" class="g1_1"/>
<path fill-rule="evenodd" d="M355.6,858.1h58.8V857H355.6v1.1Z" class="g1_1"/>
<g clip-path="url(#c0_1)">
<image preserveAspectRatio="none" x="138" y="926" width="15" height="16" xlink:href="img/1.png"/>
<image preserveAspectRatio="none" x="138" y="947" width="15" height="15" xlink:href="img/2.png"/>
<image preserveAspectRatio="none" x="138" y="967" width="15" height="16" xlink:href="img/3.png"/>
<image preserveAspectRatio="none" x="138" y="1008" width="15" height="16" xlink:href="img/4.png"/>
<image preserveAspectRatio="none" x="138" y="1090" width="15" height="16" xlink:href="img/5.png"/>
</g>
<path fill-rule="evenodd" d="M320.8,505.9h133V470h-133v35.9Z" class="g2_1"/>
<path d="M320.8,505.9h133V470h-133v35.9Z" class="g3_1"/>
<path fill-rule="evenodd" d="M652.4,504.3H785.3v-36H652.4v36Z" class="g2_1"/>
<path d="M652.4,504.3H785.3v-36H652.4v36Z" class="g3_1"/>
<path fill-rule="evenodd" d="M346,609.6H479V573.7H346v35.9Z" class="g2_1"/>
<path d="M346,609.6H479V573.7H346v35.9Z" class="g3_1"/>
<path fill-rule="evenodd" d="M644,608.8H776.9V572.9H644v35.9Z" class="g2_1"/>
<path d="M644,608.8H776.9V572.9H644v35.9Z" class="g3_1"/>
<path fill-rule="evenodd" d="M145.1,609.6H330V573.7H145.1v35.9Z" class="g2_1"/>
<path d="M145.1,609.6H330V573.7H145.1v35.9Z" class="g3_1"/>
<g clip-path="url(#c0_1)">
<path fill-rule="evenodd" d="M792.2,608.8H925.1V572.9H792.2v35.9Z" class="g2_1"/>
<path d="M792.2,608.8H925.1V572.9H792.2v35.9Z" class="g3_1"/>
</g>
<path fill-rule="evenodd" d="M497.3,608.8H630.2V572.9H497.3v35.9Z" class="g2_1"/>
<path d="M497.3,608.8H630.2V572.9H497.3v35.9Z" class="g3_1"/>
<path d="M320.8,503.5L146.7,572.9M453.8,507.5l103.1,65.4m.7,.8l91.7,-68.6" class="g4_1"/>
<path clip-path="url(#c0_1)" d="M788.3,507.5L922,572.1" class="g4_1"/>
<path fill-rule="evenodd" d="M95.5,675h34.4V501H95.5V675Z" class="g2_1"/>
</svg>