<?xml version="1.0" encoding="UTF-8" standalone="no"?>
<!DOCTYPE svg PUBLIC "-//W3C//DTD SVG 1.1//EN"
"http://www.w3.org/Graphics/SVG/1.1/DTD/svg11.dtd">
<svg viewBox="0 0 909 1286" version="1.1" xmlns="http://www.w3.org/2000/svg" xmlns:xlink="http://www.w3.org/1999/xlink">
<defs>
<style type="text/css"><![CDATA[
.g0_5{
fill: #000;
}
]]></style>
</defs>
<path fill-rule="evenodd" d="M110,128.9H251v-1.1H110v1.1Z" class="g0_5"/>
<path fill-rule="evenodd" d="M110,628H215.8v-1.1H110V628Z" class="g0_5"/>
<path fill-rule="evenodd" d="M110,858.1h.8v-.7H110v.7Z" class="g0_5"/>
<path fill-rule="evenodd" d="M110,858.1h.8v-.7H110v.7Z" class="g0_5"/>
<path fill-rule="evenodd" d="M110.8,858.1H339.6v-.7H110.8v.7Z" class="g0_5"/>
<path fill-rule="evenodd" d="M339.6,858.1h.7v-.7h-.7v.7Z" class="g0_5"/>
<path fill-rule="evenodd" d="M340.3,858.1H569.2v-.7H340.3v.7Z" class="g0_5"/>
<path fill-rule="evenodd" d="M569.2,858.1h.7v-.7h-.7v.7Z" class="g0_5"/>
<path fill-rule="evenodd" d="M569.9,858.1h229v-.7h-229v.7Z" class="g0_5"/>
<path fill-rule="evenodd" d="M798.9,858.1h.8v-.7h-.8v.7Z" class="g0_5"/>
<path fill-rule="evenodd" d="M798.9,858.1h.8v-.7h-.8v.7Z" class="g0_5"/>
<path fill-rule="evenodd" d="M110,878.6h.8V858.1H110v20.5Z" class="g0_5"/>
<path fill-rule="evenodd" d="M339.6,878.6h.7V858.1h-.7v20.5Z" class="g0_5"/>
<path fill-rule="evenodd" d="M569.2,878.6h.7V858.1h-.7v20.5Z" class="g0_5"/>
<path fill-rule="evenodd" d="M798.9,878.6h.8V858.1h-.8v20.5Z" class="g0_5"/>
<path fill-rule="evenodd" d="M110,879.4h.8v-.8H110v.8Z" class="g0_5"/>
<path fill-rule="evenodd" d="M110.8,879.4H339.6v-.8H110.8v.8Z" class="g0_5"/>
<path fill-rule="evenodd" d="M339.6,879.4h.7v-.8h-.7v.8Z" class="g0_5"/>
<path fill-rule="evenodd" d="M340.3,879.4H569.2v-.8H340.3v.8Z" class="g0_5"/>
<path fill-rule="evenodd" d="M569.2,879.4h.7v-.8h-.7v.8Z" class="g0_5"/>
<path fill-rule="evenodd" d="M569.9,879.4h229v-.8h-229v.8Z" class="g0_5"/>
<path fill-rule="evenodd" d="M798.9,879.4h.8v-.8h-.8v.8Z" class="g0_5"/>
<path fill-rule="evenodd" d="M110,899.9h.8V879.4H110v20.5Z" class="g0_5"/>
<path fill-rule="evenodd" d="M339.6,899.9h.7V879.4h-.7v20.5Z" class="g0_5"/>
<path fill-rule="evenodd" d="M569.2,899.9h.7V879.4h-.7v20.5Z" class="g0_5"/>
<path fill-rule="evenodd" d="M798.9,899.9h.8V879.4h-.8v20.5Z" class="g0_5"/>
<path fill-rule="evenodd" d="M110,900.6h.8v-.7H110v.7Z" class="g0_5"/>
<path fill-rule="evenodd" d="M110.8,900.6H339.6v-.7H110.8v.7Z" class="g0_5"/>
<path fill-rule="evenodd" d="M339.6,900.6h.7v-.7h-.7v.7Z" class="g0_5"/>
<path fill-rule="evenodd" d="M340.3,900.6H569.2v-.7H340.3v.7Z" class="g0_5"/>
<path fill-rule="evenodd" d="M569.2,900.6h.7v-.7h-.7v.7Z" class="g0_5"/>
<path fill-rule="evenodd" d="M569.9,900.6h229v-.7h-229v.7Z" class="g0_5"/>
<path fill-rule="evenodd" d="M798.9,900.6h.8v-.7h-.8v.7Z" class="g0_5"/>
<path fill-rule="evenodd" d="M110,921.2h.8V900.6H110v20.6Z" class="g0_5"/>
<path fill-rule="evenodd" d="M339.6,921.2h.7V900.6h-.7v20.6Z" class="g0_5"/>
<path fill-rule="evenodd" d="M569.2,921.2h.7V900.6h-.7v20.6Z" class="g0_5"/>
<path fill-rule="evenodd" d="M798.9,921.2h.8V900.6h-.8v20.6Z" class="g0_5"/>
<path fill-rule="evenodd" d="M110,921.9h.8v-.7H110v.7Z" class="g0_5"/>
<path fill-rule="evenodd" d="M110.8,921.9H339.6v-.7H110.8v.7Z" class="g0_5"/>
<path fill-rule="evenodd" d="M339.6,921.9h.7v-.7h-.7v.7Z" class="g0_5"/>
<path fill-rule="evenodd" d="M340.3,921.9H569.2v-.7H340.3v.7Z" class="g0_5"/>
<path fill-rule="evenodd" d="M569.2,921.9h.7v-.7h-.7v.7Z" class="g0_5"/>
<path fill-rule="evenodd" d="M569.9,921.9h229v-.7h-229v.7Z" class="g0_5"/>
<path fill-rule="evenodd" d="M798.9,921.9h.8v-.7h-.8v.7Z" class="g0_5"/>
<path fill-rule="evenodd" d="M110,942.4h.8V921.9H110v20.5Z" class="g0_5"/>
<path fill-rule="evenodd" d="M339.6,942.4h.7V921.9h-.7v20.5Z" class="g0_5"/>
<path fill-rule="evenodd" d="M569.2,942.4h.7V921.9h-.7v20.5Z" class="g0_5"/>
<path fill-rule="evenodd" d="M798.9,942.4h.8V921.9h-.8v20.5Z" class="g0_5"/>
<path fill-rule="evenodd" d="M110,943.2h.8v-.8H110v.8Z" class="g0_5"/>
<path fill-rule="evenodd" d="M110.8,943.2H339.6v-.8H110.8v.8Z" class="g0_5"/>
<path fill-rule="evenodd" d="M339.6,943.2h.7v-.8h-.7v.8Z" class="g0_5"/>
<path fill-rule="evenodd" d="M340.3,943.2H569.2v-.8H340.3v.8Z" class="g0_5"/>
<path fill-rule="evenodd" d="M569.2,943.2h.7v-.8h-.7v.8Z" class="g0_5"/>
<path fill-rule="evenodd" d="M569.9,943.2h229v-.8h-229v.8Z" class="g0_5"/>
<path fill-rule="evenodd" d="M798.9,943.2h.8v-.8h-.8v.8Z" class="g0_5"/>
<path fill-rule="evenodd" d="M110,984.3h.8V943.2H110v41.1Z" class="g0_5"/>
<path fill-rule="evenodd" d="M110,985h.8v-.7H110v.7Z" class="g0_5"/>
<path fill-rule="evenodd" d="M110,985h.8v-.7H110v.7Z" class="g0_5"/>
<path fill-rule="evenodd" d="M110.8,985H339.6v-.7H110.8v.7Z" class="g0_5"/>
<path fill-rule="evenodd" d="M339.6,984.3h.7V943.2h-.7v41.1Z" class="g0_5"/>
<path fill-rule="evenodd" d="M339.6,985h.7v-.7h-.7v.7Z" class="g0_5"/>
<path fill-rule="evenodd" d="M340.3,985H569.2v-.7H340.3v.7Z" class="g0_5"/>
<path fill-rule="evenodd" d="M569.2,984.3h.7V943.2h-.7v41.1Z" class="g0_5"/>
<path fill-rule="evenodd" d="M569.2,985h.7v-.7h-.7v.7Z" class="g0_5"/>
<path fill-rule="evenodd" d="M569.9,985h229v-.7h-229v.7Z" class="g0_5"/>
<path fill-rule="evenodd" d="M798.9,984.3h.8V943.2h-.8v41.1Z" class="g0_5"/>
<path fill-rule="evenodd" d="M798.9,985h.8v-.7h-.8v.7Z" class="g0_5"/>
<path fill-rule="evenodd" d="M798.9,985h.8v-.7h-.8v.7Z" class="g0_5"/>
</svg>