<?xml version="1.0" encoding="UTF-8" standalone="no"?>
<!DOCTYPE svg PUBLIC "-//W3C//DTD SVG 1.1//EN"
"http://www.w3.org/Graphics/SVG/1.1/DTD/svg11.dtd">
<svg viewBox="0 0 909 1286" version="1.1" xmlns="http://www.w3.org/2000/svg" xmlns:xlink="http://www.w3.org/1999/xlink">
<defs>
<clipPath id="c0_6"><path d="M0,1286.3V0H909.5V1286.3Z"/></clipPath>
<style type="text/css"><![CDATA[
.g0_6{
fill: #000;
}
]]></style>
</defs>
<path fill-rule="evenodd" d="M109.7,509.9h.7v-.7h-.7v.7Z" class="g0_6"/>
<path fill-rule="evenodd" d="M109.7,509.9h.7v-.7h-.7v.7Z" class="g0_6"/>
<path fill-rule="evenodd" d="M110.4,509.9h370v-.7h-370v.7Z" class="g0_6"/>
<path fill-rule="evenodd" d="M480.4,509.9h.8v-.7h-.8v.7Z" class="g0_6"/>
<path clip-path="url(#c0_6)" fill-rule="evenodd" d="M481.2,509.9H954.6v-.7H481.2v.7Z" class="g0_6"/>
<path fill-rule="evenodd" d="M109.7,544h.7V509.9h-.7V544Z" class="g0_6"/>
<path fill-rule="evenodd" d="M480.4,544h.8V509.9h-.8V544Z" class="g0_6"/>
<path fill-rule="evenodd" d="M109.7,544.8h.7V544h-.7v.8Z" class="g0_6"/>
<path fill-rule="evenodd" d="M110.4,544.8H335V544H110.4v.8Z" class="g0_6"/>
<path fill-rule="evenodd" d="M335,544.8h.8V544H335v.8Z" class="g0_6"/>
<path fill-rule="evenodd" d="M335.8,544.8H480.4V544H335.8v.8Z" class="g0_6"/>
<path fill-rule="evenodd" d="M480.4,544.8h.8V544h-.8v.8Z" class="g0_6"/>
<path fill-rule="evenodd" d="M481.2,544.8H825V544H481.2v.8Z" class="g0_6"/>
<path fill-rule="evenodd" d="M825,544.8h.7V544H825v.8Z" class="g0_6"/>
<path clip-path="url(#c0_6)" fill-rule="evenodd" d="M825.7,544.8H954.6V544H825.7v.8Z" class="g0_6"/>
<path fill-rule="evenodd" d="M109.7,614.8h.7v-70h-.7v70Z" class="g0_6"/>
<path fill-rule="evenodd" d="M335,614.8h.8v-70H335v70Z" class="g0_6"/>
<path fill-rule="evenodd" d="M480.4,614.8h.8v-70h-.8v70Z" class="g0_6"/>
<path fill-rule="evenodd" d="M825,614.8h.7v-70H825v70Z" class="g0_6"/>
<path fill-rule="evenodd" d="M109.7,615.5h.7v-.7h-.7v.7Z" class="g0_6"/>
<path fill-rule="evenodd" d="M110.4,615.5h67.8v-.7H110.4v.7Z" class="g0_6"/>
<path fill-rule="evenodd" d="M178.2,615.5h.8v-.7h-.8v.7Z" class="g0_6"/>
<path fill-rule="evenodd" d="M179,615.5h33.9v-.7H179v.7Z" class="g0_6"/>
<path fill-rule="evenodd" d="M212.9,615.5h.7v-.7h-.7v.7Z" class="g0_6"/>
<path fill-rule="evenodd" d="M213.6,615.5h40.7v-.7H213.6v.7Z" class="g0_6"/>
<path fill-rule="evenodd" d="M254.3,615.5h.7v-.7h-.7v.7Z" class="g0_6"/>
<path fill-rule="evenodd" d="M255,615.5h44.5v-.7H255v.7Z" class="g0_6"/>
<path fill-rule="evenodd" d="M299.5,615.5h.7v-.7h-.7v.7Z" class="g0_6"/>
<path fill-rule="evenodd" d="M300.2,615.5H335v-.7H300.2v.7Z" class="g0_6"/>
<path fill-rule="evenodd" d="M335,615.5h.8v-.7H335v.7Z" class="g0_6"/>
<path fill-rule="evenodd" d="M335.8,615.5h43.6v-.7H335.8v.7Z" class="g0_6"/>
<path fill-rule="evenodd" d="M379.4,615.5h.7v-.7h-.7v.7Z" class="g0_6"/>
<path fill-rule="evenodd" d="M380.1,615.5h51v-.7h-51v.7Z" class="g0_6"/>
<path fill-rule="evenodd" d="M431.1,615.5h.7v-.7h-.7v.7Z" class="g0_6"/>
<path fill-rule="evenodd" d="M431.8,615.5h48.6v-.7H431.8v.7Z" class="g0_6"/>
<path fill-rule="evenodd" d="M480.4,615.5h.8v-.7h-.8v.7Z" class="g0_6"/>
<path fill-rule="evenodd" d="M481.2,615.5h60.3v-.7H481.2v.7Z" class="g0_6"/>
<path fill-rule="evenodd" d="M541.5,615.5h.7v-.7h-.7v.7Z" class="g0_6"/>
<path fill-rule="evenodd" d="M542.2,615.5h91.7v-.7H542.2v.7Z" class="g0_6"/>
<path fill-rule="evenodd" d="M633.9,615.5h.7v-.7h-.7v.7Z" class="g0_6"/>
<path fill-rule="evenodd" d="M634.6,615.5h57.3v-.7H634.6v.7Z" class="g0_6"/>
<path fill-rule="evenodd" d="M691.9,615.5h.7v-.7h-.7v.7Z" class="g0_6"/>
<path fill-rule="evenodd" d="M692.6,615.5h58.1v-.7H692.6v.7Z" class="g0_6"/>
<path fill-rule="evenodd" d="M750.7,615.5h.8v-.7h-.8v.7Z" class="g0_6"/>
<path fill-rule="evenodd" d="M751.5,615.5H825v-.7H751.5v.7Z" class="g0_6"/>
<path fill-rule="evenodd" d="M825,615.5h.7v-.7H825v.7Z" class="g0_6"/>
<path clip-path="url(#c0_6)" fill-rule="evenodd" d="M825.7,615.5H954.6v-.7H825.7v.7Z" class="g0_6"/>
<path fill-rule="evenodd" d="M109.7,697.7h.7V615.5h-.7v82.2Z" class="g0_6"/>
<path fill-rule="evenodd" d="M109.7,698.4h.7v-.7h-.7v.7Z" class="g0_6"/>
<path fill-rule="evenodd" d="M109.7,698.4h.7v-.7h-.7v.7Z" class="g0_6"/>
<path fill-rule="evenodd" d="M110.4,698.4h67.8v-.7H110.4v.7Z" class="g0_6"/>
<path fill-rule="evenodd" d="M178.2,697.7h.8V615.5h-.8v82.2Z" class="g0_6"/>
<path fill-rule="evenodd" d="M178.2,698.4h.8v-.7h-.8v.7Z" class="g0_6"/>
<path fill-rule="evenodd" d="M179,698.4h33.9v-.7H179v.7Z" class="g0_6"/>
<path fill-rule="evenodd" d="M212.9,697.7h.7V615.5h-.7v82.2Z" class="g0_6"/>
<path fill-rule="evenodd" d="M212.9,698.4h.7v-.7h-.7v.7Z" class="g0_6"/>
<path fill-rule="evenodd" d="M213.6,698.4h40.7v-.7H213.6v.7Z" class="g0_6"/>
<path fill-rule="evenodd" d="M254.3,697.7h.7V615.5h-.7v82.2Z" class="g0_6"/>
<path fill-rule="evenodd" d="M254.3,698.4h.7v-.7h-.7v.7Z" class="g0_6"/>
<path fill-rule="evenodd" d="M255,698.4h44.5v-.7H255v.7Z" class="g0_6"/>
<path fill-rule="evenodd" d="M299.5,697.7h.7V615.5h-.7v82.2Z" class="g0_6"/>
<path fill-rule="evenodd" d="M299.5,698.4h.7v-.7h-.7v.7Z" class="g0_6"/>
<path fill-rule="evenodd" d="M300.2,698.4H335v-.7H300.2v.7Z" class="g0_6"/>
<path fill-rule="evenodd" d="M335,697.7h.8V615.5H335v82.2Z" class="g0_6"/>
<path fill-rule="evenodd" d="M335,698.4h.8v-.7H335v.7Z" class="g0_6"/>
<path fill-rule="evenodd" d="M335.8,698.4h43.6v-.7H335.8v.7Z" class="g0_6"/>
<path fill-rule="evenodd" d="M379.4,697.7h.7V615.5h-.7v82.2Z" class="g0_6"/>
<path fill-rule="evenodd" d="M379.4,698.4h.7v-.7h-.7v.7Z" class="g0_6"/>
<path fill-rule="evenodd" d="M380.1,698.4h51v-.7h-51v.7Z" class="g0_6"/>
<path fill-rule="evenodd" d="M431.1,697.7h.7V615.5h-.7v82.2Z" class="g0_6"/>
<path fill-rule="evenodd" d="M431.1,698.4h.7v-.7h-.7v.7Z" class="g0_6"/>
<path fill-rule="evenodd" d="M431.8,698.4h48.6v-.7H431.8v.7Z" class="g0_6"/>
<path fill-rule="evenodd" d="M480.4,697.7h.8V615.5h-.8v82.2Z" class="g0_6"/>
<path fill-rule="evenodd" d="M480.4,698.4h.8v-.7h-.8v.7Z" class="g0_6"/>
<path fill-rule="evenodd" d="M481.2,698.4h60.3v-.7H481.2v.7Z" class="g0_6"/>
<path fill-rule="evenodd" d="M541.5,697.7h.7V615.5h-.7v82.2Z" class="g0_6"/>
<path fill-rule="evenodd" d="M541.5,698.4h.7v-.7h-.7v.7Z" class="g0_6"/>
<path fill-rule="evenodd" d="M542.2,698.4h91.7v-.7H542.2v.7Z" class="g0_6"/>
<path fill-rule="evenodd" d="M633.9,697.7h.7V615.5h-.7v82.2Z" class="g0_6"/>
<path fill-rule="evenodd" d="M633.9,698.4h.7v-.7h-.7v.7Z" class="g0_6"/>
<path fill-rule="evenodd" d="M634.6,698.4h57.3v-.7H634.6v.7Z" class="g0_6"/>
<path fill-rule="evenodd" d="M691.9,697.7h.7V615.5h-.7v82.2Z" class="g0_6"/>
<path fill-rule="evenodd" d="M691.9,698.4h.7v-.7h-.7v.7Z" class="g0_6"/>
<path fill-rule="evenodd" d="M692.6,698.4h58.1v-.7H692.6v.7Z" class="g0_6"/>
<path fill-rule="evenodd" d="M750.7,697.7h.8V615.5h-.8v82.2Z" class="g0_6"/>
<path fill-rule="evenodd" d="M750.7,698.4h.8v-.7h-.8v.7Z" class="g0_6"/>
<path fill-rule="evenodd" d="M751.5,698.4H825v-.7H751.5v.7Z" class="g0_6"/>
<path fill-rule="evenodd" d="M825,697.7h.7V615.5H825v82.2Z" class="g0_6"/>
<path fill-rule="evenodd" d="M825,698.4h.7v-.7H825v.7Z" class="g0_6"/>
<path clip-path="url(#c0_6)" fill-rule="evenodd" d="M825.7,698.4H954.6v-.7H825.7v.7Z" class="g0_6"/>
</svg>