<?xml version="1.0" encoding="UTF-8" standalone="no"?>
<!DOCTYPE svg PUBLIC "-//W3C//DTD SVG 1.1//EN"
"http://www.w3.org/Graphics/SVG/1.1/DTD/svg11.dtd">
<svg viewBox="0 0 909 1286" version="1.1" xmlns="http://www.w3.org/2000/svg" xmlns:xlink="http://www.w3.org/1999/xlink">
<defs>
<style type="text/css"><![CDATA[
.g0_6{
fill: #000;
}
]]></style>
</defs>
<path fill-rule="evenodd" d="M31.9,509.9h.7v-.7h-.7v.7Z" class="g0_6"/>
<path fill-rule="evenodd" d="M31.9,509.9h.7v-.7h-.7v.7Z" class="g0_6"/>
<path fill-rule="evenodd" d="M32.6,509.9H402.7v-.7H32.6v.7Z" class="g0_6"/>
<path fill-rule="evenodd" d="M402.7,509.9h.7v-.7h-.7v.7Z" class="g0_6"/>
<path fill-rule="evenodd" d="M403.4,509.9H876.9v-.7H403.4v.7Z" class="g0_6"/>
<path fill-rule="evenodd" d="M876.9,509.9h.7v-.7h-.7v.7Z" class="g0_6"/>
<path fill-rule="evenodd" d="M876.9,509.9h.7v-.7h-.7v.7Z" class="g0_6"/>
<path fill-rule="evenodd" d="M31.9,544h.7V509.9h-.7V544Z" class="g0_6"/>
<path fill-rule="evenodd" d="M402.7,544h.7V509.9h-.7V544Z" class="g0_6"/>
<path fill-rule="evenodd" d="M876.9,544h.7V509.9h-.7V544Z" class="g0_6"/>
<path fill-rule="evenodd" d="M31.9,544.8h.7V544h-.7v.8Z" class="g0_6"/>
<path fill-rule="evenodd" d="M32.6,544.8H257.2V544H32.6v.8Z" class="g0_6"/>
<path fill-rule="evenodd" d="M257.2,544.8h.8V544h-.8v.8Z" class="g0_6"/>
<path fill-rule="evenodd" d="M258,544.8H402.7V544H258v.8Z" class="g0_6"/>
<path fill-rule="evenodd" d="M402.7,544.8h.7V544h-.7v.8Z" class="g0_6"/>
<path fill-rule="evenodd" d="M403.4,544.8H747.2V544H403.4v.8Z" class="g0_6"/>
<path fill-rule="evenodd" d="M747.2,544.8h.8V544h-.8v.8Z" class="g0_6"/>
<path fill-rule="evenodd" d="M748,544.8H876.9V544H748v.8Z" class="g0_6"/>
<path fill-rule="evenodd" d="M876.9,544.8h.7V544h-.7v.8Z" class="g0_6"/>
<path fill-rule="evenodd" d="M31.9,614.8h.7v-70h-.7v70Z" class="g0_6"/>
<path fill-rule="evenodd" d="M257.2,614.8h.8v-70h-.8v70Z" class="g0_6"/>
<path fill-rule="evenodd" d="M402.7,614.8h.7v-70h-.7v70Z" class="g0_6"/>
<path fill-rule="evenodd" d="M747.2,614.8h.8v-70h-.8v70Z" class="g0_6"/>
<path fill-rule="evenodd" d="M876.9,614.8h.7v-70h-.7v70Z" class="g0_6"/>
<path fill-rule="evenodd" d="M31.9,615.5h.7v-.7h-.7v.7Z" class="g0_6"/>
<path fill-rule="evenodd" d="M32.6,615.5h67.9v-.7H32.6v.7Z" class="g0_6"/>
<path fill-rule="evenodd" d="M100.5,615.5h.7v-.7h-.7v.7Z" class="g0_6"/>
<path fill-rule="evenodd" d="M101.2,615.5h34v-.7h-34v.7Z" class="g0_6"/>
<path fill-rule="evenodd" d="M135.2,615.5h.7v-.7h-.7v.7Z" class="g0_6"/>
<path fill-rule="evenodd" d="M135.9,615.5h40.7v-.7H135.9v.7Z" class="g0_6"/>
<path fill-rule="evenodd" d="M176.6,615.5h.7v-.7h-.7v.7Z" class="g0_6"/>
<path fill-rule="evenodd" d="M177.3,615.5h44.4v-.7H177.3v.7Z" class="g0_6"/>
<path fill-rule="evenodd" d="M221.7,615.5h.7v-.7h-.7v.7Z" class="g0_6"/>
<path fill-rule="evenodd" d="M222.4,615.5h34.8v-.7H222.4v.7Z" class="g0_6"/>
<path fill-rule="evenodd" d="M257.2,615.5h.8v-.7h-.8v.7Z" class="g0_6"/>
<path fill-rule="evenodd" d="M258,615.5h43.7v-.7H258v.7Z" class="g0_6"/>
<path fill-rule="evenodd" d="M301.7,615.5h.7v-.7h-.7v.7Z" class="g0_6"/>
<path fill-rule="evenodd" d="M302.4,615.5h51v-.7h-51v.7Z" class="g0_6"/>
<path fill-rule="evenodd" d="M353.4,615.5h.7v-.7h-.7v.7Z" class="g0_6"/>
<path fill-rule="evenodd" d="M354.1,615.5h48.6v-.7H354.1v.7Z" class="g0_6"/>
<path fill-rule="evenodd" d="M402.7,615.5h.7v-.7h-.7v.7Z" class="g0_6"/>
<path fill-rule="evenodd" d="M403.4,615.5h60.3v-.7H403.4v.7Z" class="g0_6"/>
<path fill-rule="evenodd" d="M463.7,615.5h.8v-.7h-.8v.7Z" class="g0_6"/>
<path fill-rule="evenodd" d="M464.5,615.5h91.7v-.7H464.5v.7Z" class="g0_6"/>
<path fill-rule="evenodd" d="M556.2,615.5h.7v-.7h-.7v.7Z" class="g0_6"/>
<path fill-rule="evenodd" d="M556.9,615.5h57.4v-.7H556.9v.7Z" class="g0_6"/>
<path fill-rule="evenodd" d="M614.3,615.5h.7v-.7h-.7v.7Z" class="g0_6"/>
<path fill-rule="evenodd" d="M615,615.5h58v-.7H615v.7Z" class="g0_6"/>
<path fill-rule="evenodd" d="M673,615.5h.7v-.7H673v.7Z" class="g0_6"/>
<path fill-rule="evenodd" d="M673.7,615.5h73.5v-.7H673.7v.7Z" class="g0_6"/>
<path fill-rule="evenodd" d="M747.2,615.5h.8v-.7h-.8v.7Z" class="g0_6"/>
<path fill-rule="evenodd" d="M748,615.5H876.9v-.7H748v.7Z" class="g0_6"/>
<path fill-rule="evenodd" d="M876.9,615.5h.7v-.7h-.7v.7Z" class="g0_6"/>
<path fill-rule="evenodd" d="M31.9,697.7h.7V615.5h-.7v82.2Z" class="g0_6"/>
<path fill-rule="evenodd" d="M31.9,698.4h.7v-.7h-.7v.7Z" class="g0_6"/>
<path fill-rule="evenodd" d="M31.9,698.4h.7v-.7h-.7v.7Z" class="g0_6"/>
<path fill-rule="evenodd" d="M32.6,698.4h67.9v-.7H32.6v.7Z" class="g0_6"/>
<path fill-rule="evenodd" d="M100.5,697.7h.7V615.5h-.7v82.2Z" class="g0_6"/>
<path fill-rule="evenodd" d="M100.5,698.4h.7v-.7h-.7v.7Z" class="g0_6"/>
<path fill-rule="evenodd" d="M101.2,698.4h34v-.7h-34v.7Z" class="g0_6"/>
<path fill-rule="evenodd" d="M135.2,697.7h.7V615.5h-.7v82.2Z" class="g0_6"/>
<path fill-rule="evenodd" d="M135.2,698.4h.7v-.7h-.7v.7Z" class="g0_6"/>
<path fill-rule="evenodd" d="M135.9,698.4h40.7v-.7H135.9v.7Z" class="g0_6"/>
<path fill-rule="evenodd" d="M176.6,697.7h.7V615.5h-.7v82.2Z" class="g0_6"/>
<path fill-rule="evenodd" d="M176.6,698.4h.7v-.7h-.7v.7Z" class="g0_6"/>
<path fill-rule="evenodd" d="M177.3,698.4h44.4v-.7H177.3v.7Z" class="g0_6"/>
<path fill-rule="evenodd" d="M221.7,697.7h.7V615.5h-.7v82.2Z" class="g0_6"/>
<path fill-rule="evenodd" d="M221.7,698.4h.7v-.7h-.7v.7Z" class="g0_6"/>
<path fill-rule="evenodd" d="M222.4,698.4h34.8v-.7H222.4v.7Z" class="g0_6"/>
<path fill-rule="evenodd" d="M257.2,697.7h.8V615.5h-.8v82.2Z" class="g0_6"/>
<path fill-rule="evenodd" d="M257.2,698.4h.8v-.7h-.8v.7Z" class="g0_6"/>
<path fill-rule="evenodd" d="M258,698.4h43.7v-.7H258v.7Z" class="g0_6"/>
<path fill-rule="evenodd" d="M301.7,697.7h.7V615.5h-.7v82.2Z" class="g0_6"/>
<path fill-rule="evenodd" d="M301.7,698.4h.7v-.7h-.7v.7Z" class="g0_6"/>
<path fill-rule="evenodd" d="M302.4,698.4h51v-.7h-51v.7Z" class="g0_6"/>
<path fill-rule="evenodd" d="M353.4,697.7h.7V615.5h-.7v82.2Z" class="g0_6"/>
<path fill-rule="evenodd" d="M353.4,698.4h.7v-.7h-.7v.7Z" class="g0_6"/>
<path fill-rule="evenodd" d="M354.1,698.4h48.6v-.7H354.1v.7Z" class="g0_6"/>
<path fill-rule="evenodd" d="M402.7,697.7h.7V615.5h-.7v82.2Z" class="g0_6"/>
<path fill-rule="evenodd" d="M402.7,698.4h.7v-.7h-.7v.7Z" class="g0_6"/>
<path fill-rule="evenodd" d="M403.4,698.4h60.3v-.7H403.4v.7Z" class="g0_6"/>
<path fill-rule="evenodd" d="M463.7,697.7h.8V615.5h-.8v82.2Z" class="g0_6"/>
<path fill-rule="evenodd" d="M463.7,698.4h.8v-.7h-.8v.7Z" class="g0_6"/>
<path fill-rule="evenodd" d="M464.5,698.4h91.7v-.7H464.5v.7Z" class="g0_6"/>
<path fill-rule="evenodd" d="M556.2,697.7h.7V615.5h-.7v82.2Z" class="g0_6"/>
<path fill-rule="evenodd" d="M556.2,698.4h.7v-.7h-.7v.7Z" class="g0_6"/>
<path fill-rule="evenodd" d="M556.9,698.4h57.4v-.7H556.9v.7Z" class="g0_6"/>
<path fill-rule="evenodd" d="M614.3,697.7h.7V615.5h-.7v82.2Z" class="g0_6"/>
<path fill-rule="evenodd" d="M614.3,698.4h.7v-.7h-.7v.7Z" class="g0_6"/>
<path fill-rule="evenodd" d="M615,698.4h58v-.7H615v.7Z" class="g0_6"/>
<path fill-rule="evenodd" d="M673,697.7h.7V615.5H673v82.2Z" class="g0_6"/>
<path fill-rule="evenodd" d="M673,698.4h.7v-.7H673v.7Z" class="g0_6"/>
<path fill-rule="evenodd" d="M673.7,698.4h73.5v-.7H673.7v.7Z" class="g0_6"/>
<path fill-rule="evenodd" d="M747.2,697.7h.8V615.5h-.8v82.2Z" class="g0_6"/>
<path fill-rule="evenodd" d="M747.2,698.4h.8v-.7h-.8v.7Z" class="g0_6"/>
<path fill-rule="evenodd" d="M748,698.4H876.9v-.7H748v.7Z" class="g0_6"/>
<path fill-rule="evenodd" d="M876.9,697.7h.7V615.5h-.7v82.2Z" class="g0_6"/>
<path fill-rule="evenodd" d="M876.9,698.4h.7v-.7h-.7v.7Z" class="g0_6"/>
<path fill-rule="evenodd" d="M876.9,698.4h.7v-.7h-.7v.7Z" class="g0_6"/>
</svg>