<?xml version="1.0" encoding="UTF-8" standalone="no"?>
<!DOCTYPE svg PUBLIC "-//W3C//DTD SVG 1.1//EN"
"http://www.w3.org/Graphics/SVG/1.1/DTD/svg11.dtd">
<svg viewBox="0 0 909 1286" version="1.1" xmlns="http://www.w3.org/2000/svg" xmlns:xlink="http://www.w3.org/1999/xlink">
<defs>
<style type="text/css"><![CDATA[
.g0_2{
fill: #000;
}
]]></style>
</defs>
<path fill-rule="evenodd" d="M109.7,230.1h.7v-.7h-.7v.7Z" class="g0_2"/>
<path fill-rule="evenodd" d="M109.7,230.1h.7v-.7h-.7v.7Z" class="g0_2"/>
<path fill-rule="evenodd" d="M110.4,230.1H316.9v-.7H110.4v.7Z" class="g0_2"/>
<path fill-rule="evenodd" d="M316.9,230.1h.7v-.7h-.7v.7Z" class="g0_2"/>
<path fill-rule="evenodd" d="M317.6,230.1H524.3v-.7H317.6v.7Z" class="g0_2"/>
<path fill-rule="evenodd" d="M524.3,230.1h.7v-.7h-.7v.7Z" class="g0_2"/>
<path fill-rule="evenodd" d="M525,230.1H731.5v-.7H525v.7Z" class="g0_2"/>
<path fill-rule="evenodd" d="M731.5,230.1h.7v-.7h-.7v.7Z" class="g0_2"/>
<path fill-rule="evenodd" d="M732.2,230.1H867.9v-.7H732.2v.7Z" class="g0_2"/>
<path fill-rule="evenodd" d="M867.9,230.1h.7v-.7h-.7v.7Z" class="g0_2"/>
<path fill-rule="evenodd" d="M867.9,230.1h.7v-.7h-.7v.7Z" class="g0_2"/>
<path fill-rule="evenodd" d="M109.7,250.6h.7V230.1h-.7v20.5Z" class="g0_2"/>
<path fill-rule="evenodd" d="M316.9,250.6h.7V230.1h-.7v20.5Z" class="g0_2"/>
<path fill-rule="evenodd" d="M524.3,250.6h.7V230.1h-.7v20.5Z" class="g0_2"/>
<path fill-rule="evenodd" d="M731.5,250.6h.7V230.1h-.7v20.5Z" class="g0_2"/>
<path fill-rule="evenodd" d="M867.9,250.6h.7V230.1h-.7v20.5Z" class="g0_2"/>
<path fill-rule="evenodd" d="M109.7,251.4h.7v-.8h-.7v.8Z" class="g0_2"/>
<path fill-rule="evenodd" d="M110.4,251.4H316.9v-.8H110.4v.8Z" class="g0_2"/>
<path fill-rule="evenodd" d="M316.9,251.4h.7v-.8h-.7v.8Z" class="g0_2"/>
<path fill-rule="evenodd" d="M317.6,251.4H524.3v-.8H317.6v.8Z" class="g0_2"/>
<path fill-rule="evenodd" d="M524.3,251.4h.7v-.8h-.7v.8Z" class="g0_2"/>
<path fill-rule="evenodd" d="M525,251.4H731.5v-.8H525v.8Z" class="g0_2"/>
<path fill-rule="evenodd" d="M731.5,251.4h.7v-.8h-.7v.8Z" class="g0_2"/>
<path fill-rule="evenodd" d="M732.2,251.4H867.9v-.8H732.2v.8Z" class="g0_2"/>
<path fill-rule="evenodd" d="M867.9,251.4h.7v-.8h-.7v.8Z" class="g0_2"/>
<path fill-rule="evenodd" d="M109.7,292.4h.7v-41h-.7v41Z" class="g0_2"/>
<path fill-rule="evenodd" d="M316.9,292.4h.7v-41h-.7v41Z" class="g0_2"/>
<path fill-rule="evenodd" d="M524.3,292.4h.7v-41h-.7v41Z" class="g0_2"/>
<path fill-rule="evenodd" d="M731.5,292.4h.7v-41h-.7v41Z" class="g0_2"/>
<path fill-rule="evenodd" d="M867.9,292.4h.7v-41h-.7v41Z" class="g0_2"/>
<path fill-rule="evenodd" d="M109.7,293.2h.7v-.8h-.7v.8Z" class="g0_2"/>
<path fill-rule="evenodd" d="M110.4,293.2H316.9v-.8H110.4v.8Z" class="g0_2"/>
<path fill-rule="evenodd" d="M316.9,293.2h.7v-.8h-.7v.8Z" class="g0_2"/>
<path fill-rule="evenodd" d="M317.6,293.2H524.3v-.8H317.6v.8Z" class="g0_2"/>
<path fill-rule="evenodd" d="M524.3,293.2h.7v-.8h-.7v.8Z" class="g0_2"/>
<path fill-rule="evenodd" d="M525,293.2H731.5v-.8H525v.8Z" class="g0_2"/>
<path fill-rule="evenodd" d="M731.5,293.2h.7v-.8h-.7v.8Z" class="g0_2"/>
<path fill-rule="evenodd" d="M732.2,293.2H867.9v-.8H732.2v.8Z" class="g0_2"/>
<path fill-rule="evenodd" d="M867.9,293.2h.7v-.8h-.7v.8Z" class="g0_2"/>
<path fill-rule="evenodd" d="M109.7,334.2h.7v-41h-.7v41Z" class="g0_2"/>
<path fill-rule="evenodd" d="M316.9,334.2h.7v-41h-.7v41Z" class="g0_2"/>
<path fill-rule="evenodd" d="M524.3,334.2h.7v-41h-.7v41Z" class="g0_2"/>
<path fill-rule="evenodd" d="M731.5,334.2h.7v-41h-.7v41Z" class="g0_2"/>
<path fill-rule="evenodd" d="M867.9,334.2h.7v-41h-.7v41Z" class="g0_2"/>
<path fill-rule="evenodd" d="M109.7,335h.7v-.8h-.7v.8Z" class="g0_2"/>
<path fill-rule="evenodd" d="M110.4,335H316.9v-.8H110.4v.8Z" class="g0_2"/>
<path fill-rule="evenodd" d="M316.9,335h.7v-.8h-.7v.8Z" class="g0_2"/>
<path fill-rule="evenodd" d="M317.6,335H524.3v-.8H317.6v.8Z" class="g0_2"/>
<path fill-rule="evenodd" d="M524.3,335h.7v-.8h-.7v.8Z" class="g0_2"/>
<path fill-rule="evenodd" d="M525,335H731.5v-.8H525v.8Z" class="g0_2"/>
<path fill-rule="evenodd" d="M731.5,335h.7v-.8h-.7v.8Z" class="g0_2"/>
<path fill-rule="evenodd" d="M732.2,335H867.9v-.8H732.2v.8Z" class="g0_2"/>
<path fill-rule="evenodd" d="M867.9,335h.7v-.8h-.7v.8Z" class="g0_2"/>
<path fill-rule="evenodd" d="M109.7,437.7h.7V335h-.7V437.7Z" class="g0_2"/>
<path fill-rule="evenodd" d="M316.9,437.7h.7V335h-.7V437.7Z" class="g0_2"/>
<path fill-rule="evenodd" d="M524.3,437.7h.7V335h-.7V437.7Z" class="g0_2"/>
<path fill-rule="evenodd" d="M731.5,437.7h.7V335h-.7V437.7Z" class="g0_2"/>
<path fill-rule="evenodd" d="M867.9,437.7h.7V335h-.7V437.7Z" class="g0_2"/>
<path fill-rule="evenodd" d="M109.7,438.4h.7v-.7h-.7v.7Z" class="g0_2"/>
<path fill-rule="evenodd" d="M110.4,438.4H316.9v-.7H110.4v.7Z" class="g0_2"/>
<path fill-rule="evenodd" d="M316.9,438.4h.7v-.7h-.7v.7Z" class="g0_2"/>
<path fill-rule="evenodd" d="M317.6,438.4H524.3v-.7H317.6v.7Z" class="g0_2"/>
<path fill-rule="evenodd" d="M524.3,438.4h.7v-.7h-.7v.7Z" class="g0_2"/>
<path fill-rule="evenodd" d="M525,438.4H731.5v-.7H525v.7Z" class="g0_2"/>
<path fill-rule="evenodd" d="M731.5,438.4h.7v-.7h-.7v.7Z" class="g0_2"/>
<path fill-rule="evenodd" d="M732.2,438.4H867.9v-.7H732.2v.7Z" class="g0_2"/>
<path fill-rule="evenodd" d="M867.9,438.4h.7v-.7h-.7v.7Z" class="g0_2"/>
<path fill-rule="evenodd" d="M109.7,541.1h.7V438.4h-.7V541.1Z" class="g0_2"/>
<path fill-rule="evenodd" d="M316.9,541.1h.7V438.4h-.7V541.1Z" class="g0_2"/>
<path fill-rule="evenodd" d="M524.3,541.1h.7V438.4h-.7V541.1Z" class="g0_2"/>
<path fill-rule="evenodd" d="M731.5,541.1h.7V438.4h-.7V541.1Z" class="g0_2"/>
<path fill-rule="evenodd" d="M867.9,541.1h.7V438.4h-.7V541.1Z" class="g0_2"/>
<path fill-rule="evenodd" d="M109.7,541.8h.7v-.7h-.7v.7Z" class="g0_2"/>
<path fill-rule="evenodd" d="M110.4,541.8H316.9v-.7H110.4v.7Z" class="g0_2"/>
<path fill-rule="evenodd" d="M316.9,541.8h.7v-.7h-.7v.7Z" class="g0_2"/>
<path fill-rule="evenodd" d="M317.6,541.8H524.3v-.7H317.6v.7Z" class="g0_2"/>
<path fill-rule="evenodd" d="M524.3,541.8h.7v-.7h-.7v.7Z" class="g0_2"/>
<path fill-rule="evenodd" d="M525,541.8H731.5v-.7H525v.7Z" class="g0_2"/>
<path fill-rule="evenodd" d="M731.5,541.8h.7v-.7h-.7v.7Z" class="g0_2"/>
<path fill-rule="evenodd" d="M732.2,541.8H867.9v-.7H732.2v.7Z" class="g0_2"/>
<path fill-rule="evenodd" d="M867.9,541.8h.7v-.7h-.7v.7Z" class="g0_2"/>
<path fill-rule="evenodd" d="M109.7,808.6h.7V541.8h-.7V808.6Z" class="g0_2"/>
<path fill-rule="evenodd" d="M109.7,809.3h.7v-.7h-.7v.7Z" class="g0_2"/>
<path fill-rule="evenodd" d="M109.7,809.3h.7v-.7h-.7v.7Z" class="g0_2"/>
<path fill-rule="evenodd" d="M110.4,809.3H316.9v-.7H110.4v.7Z" class="g0_2"/>
<path fill-rule="evenodd" d="M316.9,808.6h.7V541.8h-.7V808.6Z" class="g0_2"/>
<path fill-rule="evenodd" d="M316.9,809.3h.7v-.7h-.7v.7Z" class="g0_2"/>
<path fill-rule="evenodd" d="M317.6,809.3H524.3v-.7H317.6v.7Z" class="g0_2"/>
<path fill-rule="evenodd" d="M524.3,808.6h.7V541.8h-.7V808.6Z" class="g0_2"/>
<path fill-rule="evenodd" d="M524.3,809.3h.7v-.7h-.7v.7Z" class="g0_2"/>
<path fill-rule="evenodd" d="M525,809.3H731.5v-.7H525v.7Z" class="g0_2"/>
<path fill-rule="evenodd" d="M731.5,808.6h.7V541.8h-.7V808.6Z" class="g0_2"/>
<path fill-rule="evenodd" d="M731.5,809.3h.7v-.7h-.7v.7Z" class="g0_2"/>
<path fill-rule="evenodd" d="M732.2,809.3H867.9v-.7H732.2v.7Z" class="g0_2"/>
<path fill-rule="evenodd" d="M867.9,808.6h.7V541.8h-.7V808.6Z" class="g0_2"/>
<path fill-rule="evenodd" d="M867.9,809.3h.7v-.7h-.7v.7Z" class="g0_2"/>
<path fill-rule="evenodd" d="M867.9,809.3h.7v-.7h-.7v.7Z" class="g0_2"/>
</svg>